<svg xmlns="http://www.w3.org/2000/svg" viewBox="0 0 128.93 128.95"><g id="레이어_2" data-name="레이어 2"><g id="레이어_1-2" data-name="레이어 1"><path d="M64.35,101A36.54,36.54,0,1,1,101,64.56,36.47,36.47,0,0,1,64.35,101Z"/><path d="M16.85,24.06c.2-3.35,1.42-5.38,3.88-6.49a6,6,0,0,1,6.85,1c2.31,2.11,4.5,4.35,6.65,6.62a6.4,6.4,0,0,1,.07,8.56,6.18,6.18,0,0,1-8.57.9,80.73,80.73,0,0,1-7.56-7.58A9.27,9.27,0,0,1,16.85,24.06Z"/><path d="M16.91,105.72a6.64,6.64,0,0,1,1.93-4.78c2-2,3.95-4,6-6a6.44,6.44,0,1,1,9,9.18c-2,2-4,4.1-6.09,6a6,6,0,0,1-6.94,1.22A6.25,6.25,0,0,1,16.91,105.72Z"/><path d="M99.29,93a6.52,6.52,0,0,1,4.4,1.73c2.17,2.12,4.34,4.25,6.44,6.45a6.44,6.44,0,0,1,0,8.86,6.26,6.26,0,0,1-8.61.55,84.23,84.23,0,0,1-7.19-7.2,5.81,5.81,0,0,1-.71-6.77A6.4,6.4,0,0,1,99.29,93Z"/><path d="M92.92,30.05A6.59,6.59,0,0,1,94.8,25c2-2,4-4.1,6.07-6.06a6.39,6.39,0,0,1,9.14-.06,6.46,6.46,0,0,1-.15,9.25c-2,2.07-4,4.17-6.18,6.14a6,6,0,0,1-7,1.13A6.09,6.09,0,0,1,92.92,30.05Z"/><path d="M58,10.67c0-1.39,0-2.77,0-4.16a6.43,6.43,0,0,1,12.86-.26q.18,4.5,0,9A6.43,6.43,0,0,1,58,15C58,13.54,58,12.1,58,10.67Z"/><path d="M71,118.18a47.59,47.59,0,0,1-.32,5.61,6.28,6.28,0,0,1-6.83,5.13A6.41,6.41,0,0,1,58,122.63c0-2.86,0-5.72,0-8.59a6.41,6.41,0,0,1,6.34-6.59,6.47,6.47,0,0,1,6.54,6.43c0,1.43,0,2.86,0,4.29Z"/><path d="M118.08,70.92c-1.43,0-2.86,0-4.29,0A6.44,6.44,0,0,1,113.73,58c3,0,6-.06,9,0a6.44,6.44,0,0,1-.08,12.87C121.13,70.94,119.6,70.92,118.08,70.92Z"/><path d="M10.71,70.92c-1.44,0-2.87,0-4.3,0A6.45,6.45,0,0,1,6.46,58c2.82,0,5.64,0,8.46,0A6.45,6.45,0,1,1,15,70.92C13.57,70.94,12.14,70.92,10.71,70.92Z"/></g></g></svg>